<svg width="20" height="20" viewBox="0 0 20 20" fill="none" xmlns="http://www.w3.org/2000/svg">
    <g id="Iconly/Light outline/Home">
        <g id="Home">
            <path id="Vector"
                d="M7.73024 0.788309C9.00024 -0.220691 10.7802 -0.260691 12.0892 0.668309L12.2502 0.788309L18.3392 5.65931C19.0092 6.17831 19.4202 6.94931 19.4902 7.78831L19.5002 7.98931V16.0983C19.5002 18.1883 17.8492 19.8883 15.7802 19.9983H13.7902C12.8392 19.9793 12.0702 19.2393 12.0002 18.3093L11.9902 18.1683V15.3093C11.9902 14.9983 11.7592 14.7393 11.4502 14.6883L11.3602 14.6783H8.68924C8.37024 14.6883 8.11024 14.9183 8.07024 15.2183L8.06024 15.3093V18.1593C8.06024 18.2183 8.04924 18.2883 8.04024 18.3383L8.03024 18.3593L8.01924 18.4283C7.90024 19.2793 7.20024 19.9283 6.33024 19.9893L6.20024 19.9983H4.41024C2.32024 19.9983 0.610244 18.3593 0.500244 16.2983V7.98931C0.509244 7.13831 0.880244 6.34831 1.50024 5.79831L7.73024 0.788309ZM11.3802 1.87831C10.6202 1.26831 9.54025 1.23931 8.74024 1.76831L8.58924 1.87831L2.50924 6.77931C2.16024 7.03831 1.95024 7.42831 1.90024 7.83831L1.88924 7.99831V16.0983C1.88924 17.4283 2.92924 18.5183 4.25024 18.5983H6.20024C6.42024 18.5983 6.61024 18.4493 6.63924 18.2393L6.66024 18.0593L6.67024 18.0083V15.3093C6.67024 14.2393 7.49024 13.3693 8.54024 13.2883H11.3602C12.4292 13.2883 13.2992 14.1093 13.3802 15.1593V18.1683C13.3802 18.3783 13.5302 18.5593 13.7302 18.5983H15.5892C16.9292 18.5983 18.0192 17.5693 18.0992 16.2583L18.1102 16.0983V7.99831C18.0992 7.56931 17.9202 7.16831 17.6102 6.86931L17.4802 6.75831L11.3802 1.87831Z"
                fill="#FFCA40" />
        </g>
    </g>
</svg>